/* XPM */
static char *result[] = {
/* columns rows colors chars-per-pixel */
"32 32 8 1 ",
"  c #228B22",
". c #2E222F",
"X c #3E3546",
"o c #A24B6F",
"O c #CF657F",
"+ c #ED8099",
"@ c white",
"# c #228B22",
/* pixels */
"##############    ##############",
"############  ++++  ############",
"########### ++++++++ ###########",
"########## ++++++++++ ##########",
"######### ++++++++++++ #########",
"######## ++++++++++++++ ########",
"####### ++++++++++++++++ #######",
"###### ++++++++++++++++++ ######",
"###### ++++++++++++++++++ ######",
"##### O+++++++++++++++++++ #####",
"##### O+++++++++++++++++++ #####",
"#### O+++++++++++++++++++++ ####",
"#### O+++++++++++++++++++++ ####",
"### OO++XXXX++++++++XXXX++++ ###",
"### OO+++X@++++++++++X@+++++ ###",
"### OOO++XX++++++++++XX+++++ ###",
"## OOOO+++++++....+++++++++++ ##",
"## OOOO++++++.++++.++++++++++ ##",
"## OOOOO++++.++++++.+++++++++ ##",
"## OOOOO++++.+o++o+.+++++++++ ##",
"## OOOOO++++.++++++.+++++++++ ##",
"### OOOOO+++o......o++++++++ ###",
"### OOOOO++++oooooo+++++++++ ###",
"### OOOOOO++++++++++++++++++ ###",
"#### OOOOOO++.++++.++++++++ ####",
"#### OOOOOOOO+....+++++++++ ####",
"##### OOOOOOOOOO++++++++++ #####",
"###### OOOOOOOOOOOO++++OO ######",
"####### OOOOOOOOOOOOOOOO #######",
"########  OOOOOOOOOOOO  ########",
"##########  OOOOOOOO  ##########",
"############        ############"
};
