/* XPM */
static char *f70f337840f7401098b4a23110d634aeyZJiDEQ1Bq6SbfR5[] = {
/* columns rows colors chars-per-pixel */
"32 32 6 1 ",
"  c #228B22",
". c black",
"X c #231D3A",
"o c #31386D",
"O c #337AA3",
"+ c #5CC8DB",
/* pixels */
"                                ",
"                                ",
"                                ",
"                                ",
"                                ",
"             ........           ",
"           ...O++OoX...         ",
"          ..OO++OO++oX..        ",
"         ..O++++++++OoX..       ",
"        ..O++++++++O+OoX..      ",
"        .O+O++++++++++OoX.      ",
"        .O+.+++O+++O++Ooo..     ",
"        .O..O+Oo++OO+OOOoX.     ",
"        .....OoXO+oOOoOOoo..    ",
"            ...XoOooOXoOOoX.    ",
"              ..XoooooXoOoo.    ",
"               .XXoXooXXOoo..   ",
"      ......   .XXXXXooXoooX.   ",
"     ..O++O..  .XXXXXooooooo.   ",
"     .O++O++.. .XXoXXoooXoOo.   ",
"     .O+O++OO...XoooXooXXoOoX   ",
"     ...O+OoOX.XXoOoooOXoOOXX   ",
"       ..OoXO..XooooooOooOoXo   ",
"        .XoXo.XXoOoXoOOoOOooo   ",
"        .XOo..XoOOoXoOOOOoXOX   ",
"       ..XO..XooOoXooOoOOooOX   ",
"      ..XO..XooOoXXoOoOOoXOoX   ",
"     ..Xo..XooOoXXoOoOOoXooX    ",
"    ..Xo..XooooXXooooooXooX     ",
"                                ",
"                                ",
"                                "
};
